inDegrees=no
num_controls=7
num_derivatives=13
num_iterations=37
num_multipliers=7
num_parameters=0
num_slacks=7
num_states=26
objective=0.347181
objective_accelerations=0.037414
objective_balance=0.003555
objective_effort=0.033663
objective_height=0.266857
objective_ligament=0.005692
solver_duration=578.143894
status=Solve_Succeeded
success=true
DataType=double
version=3
OpenSimVersion=4.5
endheader
time	/jointset/ground_pelvis/pelvis_tilt/value	/jointset/ground_pelvis/pelvis_tx/value	/jointset/ground_pelvis/pelvis_ty/value	/jointset/hip_l/hip_flexion_l/value	/jointset/hip_l/hip_adduction_l/value	/jointset/hip_l/hip_rotation_l/value	/jointset/back/lumbar_extension/value	/jointset/patellofemoral_l/patellar_flexion_l/value	/jointset/knee_l/knee_flexion_l/value	/jointset/knee_l/knee_adduction_l/value	/jointset/knee_l/knee_rotation_l/value	/jointset/ankle_l/ankle_angle_l/value	/jointset/subtalar_l/subtalar_angle_l/value	/jointset/ground_pelvis/pelvis_tilt/speed	/jointset/ground_pelvis/pelvis_tx/speed	/jointset/ground_pelvis/pelvis_ty/speed	/jointset/hip_l/hip_flexion_l/speed	/jointset/hip_l/hip_adduction_l/speed	/jointset/hip_l/hip_rotation_l/speed	/jointset/back/lumbar_extension/speed	/jointset/patellofemoral_l/patellar_flexion_l/speed	/jointset/knee_l/knee_flexion_l/speed	/jointset/knee_l/knee_adduction_l/speed	/jointset/knee_l/knee_rotation_l/speed	/jointset/ankle_l/ankle_angle_l/speed	/jointset/subtalar_l/subtalar_angle_l/speed	/forceset/tau_hip_flexion_l	/forceset/tau_hip_adduction_l	/forceset/tau_hip_rotation_l	/forceset/tau_knee_flexion_l	/forceset/tau_ankle_angle_l	/forceset/tau_subtalar_angle_l	/forceset/tau_lumbar_extension	lambda_cid13_p0	lambda_cid13_p1	lambda_cid13_p2	lambda_cid13_p3	lambda_cid13_p4	lambda_cid13_p5	lambda_cid14_p0	/jointset/ground_pelvis/pelvis_tilt/accel	/jointset/ground_pelvis/pelvis_tx/accel	/jointset/ground_pelvis/pelvis_ty/accel	/jointset/hip_l/hip_flexion_l/accel	/jointset/hip_l/hip_adduction_l/accel	/jointset/hip_l/hip_rotation_l/accel	/jointset/back/lumbar_extension/accel	/jointset/patellofemoral_l/patellar_flexion_l/accel	/jointset/knee_l/knee_flexion_l/accel	/jointset/knee_l/knee_adduction_l/accel	/jointset/knee_l/knee_rotation_l/accel	/jointset/ankle_l/ankle_angle_l/accel	/jointset/subtalar_l/subtalar_angle_l/accel	gamma_cid13_p0	gamma_cid13_p1	gamma_cid13_p2	gamma_cid13_p3	gamma_cid13_p4	gamma_cid13_p5	gamma_cid14_p0
0	-0.04127756653443772	0.06968976316679006	0.8960236523973202	0.1955287580552426	-0.3212426076532041	-0.4983046687315794	-0.1379045077516729	0.07015288079084646	0.07015288079084844	-0.1745070149426001	-0.1320267084643412	-0.06701059314715049	0.004809634215988959	0	0	0	0	0	0	0	0	0	0	0	0	0	0.1329255534788491	-0.09604440500717239	-0.03158893237658682	-0.2265473972273262	0.1820460121210384	-0.03814913199554328	-0.08621971355234312	24.42734877827748	7.676535619121876	3.711193921154941	8.567075468375716	-469.4159319568115	-62.27119463138441	-40.30159002135707	-5.562534866121325	-3.485911881883257	-1.981615030297262	26.30896059739541	-4.723842555258461	8.752590768671128	-6.431829502135945	29.04748636046257	29.04748636045869	5.326299331170033	-2.652477324458002	9.871730933702318	0.1913122202009065	-1.708811168277888e-07	9.831948247799207e-07	1.637364464929711e-06	-1.082260064060279e-07	1.319283067376055e-06	-9.425270022250228e-07	-7.932764760718755e-08
0.01	-0.04153472459395322	0.06951621332668527	0.8959283010404543	0.1967973287897249	-0.3214697207488889	-0.4978705159647437	-0.1382343400641375	0.07155953985006284	0.07155953985008519	-0.1742444228521252	-0.132145888483775	-0.06653638671240163	0.004818461073884086	-0.0512041618570986	-0.03470633588503833	-0.0189917837792275	0.252299693055856	-0.04457527485189183	0.08596092824959045	-0.06479538169693376	0.2787650323992307	0.2787650323992205	0.05288675431864887	-0.0236708674883027	0.09364605281193097	0.002035761083979843	0.1132419785195611	-0.08671027987610691	-0.02678738980438751	-0.1932726905975151	0.1315736540325287	-0.02411812852786996	-0.07053019018719067	8.530241264184214	4.09342183360794	4.594178429976624	18.85076559967506	-472.9647936659879	-70.35587386755887	-40.3295645313251	-4.865382216280904	-3.462471263989521	-1.845923056087821	24.47818227153072	-4.197688599502949	8.38719506981235	-6.327730387284517	26.90601062822501	26.90601062822588	5.325502138256626	-2.19943357833134	8.931786270202826	0.2499177843772636	-1.789147228117196e-07	1.79781591496306e-06	1.22939015246707e-06	2.670954340963463e-07	1.415935294063318e-07	-6.468821639242544e-07	1.145833727333956e-07
0.02	-0.04229712934618644	0.06899570476329848	0.895645439244919	0.2005464381771733	-0.3221172503229667	-0.4966028836720999	-0.139176993770346	0.07567684902300154	0.07567684902299696	-0.1734418354871543	-0.1324967856014808	-0.06516157098647987	0.004855687488995143	-0.1010493385453946	-0.06939174465640294	-0.03750208773388984	0.4961077305857043	-0.08408329567773762	0.1666959051675892	-0.12256427874661	0.5421300227413371	0.5421300227413356	0.1079990548791192	-0.04634341966918309	0.1801218582344567	0.005679911443208955	0.09355840356049328	-0.07737615474488219	-0.02198584723251462	-0.1599979839676609	0.08110129594402971	-0.01008712506001511	-0.05484066682188653	-7.15070257703293	0.4861824263711172	5.46533222914679	28.68934518678664	-473.3105324532088	-77.93937013041142	-40.40982108922804	-5.290737832361856	-3.481726459147571	-1.885319065384262	24.61062949219392	-3.710391750049408	7.70740050235282	-5.026532572685537	25.96747794903768	25.96747794903759	5.771408579534111	-2.452814262973327	8.437681455822322	0.5129900752511801	-1.869483287956506e-07	2.6124370051462e-06	8.214158400044297e-07	6.424168745987205e-07	-1.036096008563391e-06	-3.51237325623486e-07	3.084943930739787e-07
0.03	-0.04355380078164387	0.06813182504448359	0.8951772713075266	0.2066962030399253	-0.3231404154444346	-0.4945474347201738	-0.140665575381512	0.08236489815229835	0.08236489815232648	-0.1720837859565902	-0.1330664864116569	-0.06294795265822463	0.004936327850871327	-0.1499053779853845	-0.1030258122912728	-0.05624956014481672	0.7321709459019455	-0.120332145909391	0.2439779658910773	-0.1747532247236805	0.7939075631044286	0.7939075631044277	0.1629931984119447	-0.06720067655980742	0.2622073587323516	0.01046788894757516	0.0915642376915393	-0.06955707753626261	-0.02244711519716537	-0.1655909682917474	0.09544189462225798	-0.01863938701689765	-0.05258846247135858	-2.5519140467399	3.322186237413987	5.096618387262526	24.5080355658192	-469.5739363387649	-69.64689281213876	-40.53473901186507	-4.626188260879077	-3.25035889097974	-1.887382366555549	22.85291302986196	-3.550028299069857	7.676223934656176	-5.25525279919971	24.54699359548223	24.54699359548255	5.271312379854445	-1.84281462131153	8.034882615251922	0.4641530824942213	-2.41608160460038e-07	1.916201062974016e-06	8.94716172251648e-07	5.701175053656632e-07	-1.183881234586553e-06	-5.507746216467851e-07	2.126045379419405e-07
